<svg xmlns="http://www.w3.org/2000/svg" xmlns:xlink="http://www.w3.org/1999/xlink" width="512" zoomAndPan="magnify" viewBox="0 0 384 383.999986" height="512" preserveAspectRatio="xMidYMid meet" version="1.0"><defs><g/><clipPath id="275eeae896"><path d="M 53.304688 53.304688 L 330.695312 53.304688 L 330.695312 330.695312 L 53.304688 330.695312 Z M 53.304688 53.304688 " clip-rule="nonzero"/></clipPath><clipPath id="d02b1bbc53"><path d="M 192 53.304688 C 115.398438 53.304688 53.304688 115.398438 53.304688 192 C 53.304688 268.601562 115.398438 330.695312 192 330.695312 C 268.601562 330.695312 330.695312 268.601562 330.695312 192 C 330.695312 115.398438 268.601562 53.304688 192 53.304688 Z M 192 53.304688 " clip-rule="nonzero"/></clipPath><clipPath id="e317a5ad5b"><path d="M 0.304688 0.304688 L 277.695312 0.304688 L 277.695312 277.695312 L 0.304688 277.695312 Z M 0.304688 0.304688 " clip-rule="nonzero"/></clipPath><clipPath id="64a12451c0"><path d="M 139 0.304688 C 62.398438 0.304688 0.304688 62.398438 0.304688 139 C 0.304688 215.601562 62.398438 277.695312 139 277.695312 C 215.601562 277.695312 277.695312 215.601562 277.695312 139 C 277.695312 62.398438 215.601562 0.304688 139 0.304688 Z M 139 0.304688 " clip-rule="nonzero"/></clipPath><clipPath id="871337f408"><rect x="0" width="278" y="0" height="278"/></clipPath><clipPath id="cfbabe8490"><path d="M 59.214844 59.214844 L 324.785156 59.214844 L 324.785156 324.785156 L 59.214844 324.785156 Z M 59.214844 59.214844 " clip-rule="nonzero"/></clipPath><clipPath id="6e0d83fc14"><path d="M 192 59.214844 C 118.664062 59.214844 59.214844 118.664062 59.214844 192 C 59.214844 265.335938 118.664062 324.785156 192 324.785156 C 265.335938 324.785156 324.785156 265.335938 324.785156 192 C 324.785156 118.664062 265.335938 59.214844 192 59.214844 Z M 192 59.214844 " clip-rule="nonzero"/></clipPath><clipPath id="c939fe747f"><path d="M 0.214844 0.214844 L 265.785156 0.214844 L 265.785156 265.785156 L 0.214844 265.785156 Z M 0.214844 0.214844 " clip-rule="nonzero"/></clipPath><clipPath id="999a374bd1"><path d="M 133 0.214844 C 59.664062 0.214844 0.214844 59.664062 0.214844 133 C 0.214844 206.335938 59.664062 265.785156 133 265.785156 C 206.335938 265.785156 265.785156 206.335938 265.785156 133 C 265.785156 59.664062 206.335938 0.214844 133 0.214844 Z M 133 0.214844 " clip-rule="nonzero"/></clipPath><clipPath id="9f6123a2e7"><rect x="0" width="266" y="0" height="266"/></clipPath><clipPath id="d6fecba2d1"><path d="M 75.886719 183.972656 L 90 183.972656 L 90 199.722656 L 75.886719 199.722656 Z M 75.886719 183.972656 " clip-rule="nonzero"/></clipPath><clipPath id="20e78ca135"><path d="M 6 0.972656 L 14.785156 0.972656 L 14.785156 15 L 6 15 Z M 6 0.972656 " clip-rule="nonzero"/></clipPath><clipPath id="c23e45c182"><path d="M 0.886719 1 L 11 1 L 11 16.722656 L 0.886719 16.722656 Z M 0.886719 1 " clip-rule="nonzero"/></clipPath><clipPath id="eb76da861f"><rect x="0" width="15" y="0" height="17"/></clipPath><clipPath id="eb748bd668"><path d="M 64.402344 64.402344 L 319.597656 64.402344 L 319.597656 319.597656 L 64.402344 319.597656 Z M 64.402344 64.402344 " clip-rule="nonzero"/></clipPath><clipPath id="eaeac1980a"><path d="M 192 64.402344 C 121.527344 64.402344 64.402344 121.527344 64.402344 192 C 64.402344 262.472656 121.527344 319.597656 192 319.597656 C 262.472656 319.597656 319.597656 262.472656 319.597656 192 C 319.597656 121.527344 262.472656 64.402344 192 64.402344 Z M 192 64.402344 " clip-rule="nonzero"/></clipPath><clipPath id="800e5a1b62"><path d="M 0.402344 0.402344 L 255.597656 0.402344 L 255.597656 255.597656 L 0.402344 255.597656 Z M 0.402344 0.402344 " clip-rule="nonzero"/></clipPath><clipPath id="8d579d8bd0"><path d="M 128 0.402344 C 57.527344 0.402344 0.402344 57.527344 0.402344 128 C 0.402344 198.472656 57.527344 255.597656 128 255.597656 C 198.472656 255.597656 255.597656 198.472656 255.597656 128 C 255.597656 57.527344 198.472656 0.402344 128 0.402344 Z M 128 0.402344 " clip-rule="nonzero"/></clipPath><clipPath id="709d6bd831"><rect x="0" width="256" y="0" height="256"/></clipPath><clipPath id="4684a31014"><rect x="0" width="233" y="0" height="102"/></clipPath><clipPath id="c426e2bcde"><rect x="0" width="246" y="0" height="113"/></clipPath><clipPath id="489c1a7b07"><path d="M 106.320312 106.320312 L 277.679688 106.320312 L 277.679688 277.679688 L 106.320312 277.679688 Z M 106.320312 106.320312 " clip-rule="nonzero"/></clipPath><clipPath id="7c752ff734"><path d="M 192 106.320312 C 144.679688 106.320312 106.320312 144.679688 106.320312 192 C 106.320312 239.320312 144.679688 277.679688 192 277.679688 C 239.320312 277.679688 277.679688 239.320312 277.679688 192 C 277.679688 144.679688 239.320312 106.320312 192 106.320312 Z M 192 106.320312 " clip-rule="nonzero"/></clipPath><clipPath id="ef97ae580a"><path d="M 0.320312 0.320312 L 171.679688 0.320312 L 171.679688 171.679688 L 0.320312 171.679688 Z M 0.320312 0.320312 " clip-rule="nonzero"/></clipPath><clipPath id="0dc2b96c68"><path d="M 86 0.320312 C 38.679688 0.320312 0.320312 38.679688 0.320312 86 C 0.320312 133.320312 38.679688 171.679688 86 171.679688 C 133.320312 171.679688 171.679688 133.320312 171.679688 86 C 171.679688 38.679688 133.320312 0.320312 86 0.320312 Z M 86 0.320312 " clip-rule="nonzero"/></clipPath><clipPath id="1ca52ed388"><rect x="0" width="172" y="0" height="172"/></clipPath><clipPath id="6efa4e5431"><path d="M 112.121094 112.121094 L 271.878906 112.121094 L 271.878906 271.878906 L 112.121094 271.878906 Z M 112.121094 112.121094 " clip-rule="nonzero"/></clipPath><clipPath id="b0ca7393e4"><path d="M 192 112.121094 C 147.882812 112.121094 112.121094 147.882812 112.121094 192 C 112.121094 236.117188 147.882812 271.878906 192 271.878906 C 236.117188 271.878906 271.878906 236.117188 271.878906 192 C 271.878906 147.882812 236.117188 112.121094 192 112.121094 Z M 192 112.121094 " clip-rule="nonzero"/></clipPath><clipPath id="dd15d39366"><path d="M 0.121094 0.121094 L 159.878906 0.121094 L 159.878906 159.878906 L 0.121094 159.878906 Z M 0.121094 0.121094 " clip-rule="nonzero"/></clipPath><clipPath id="5bc429a248"><path d="M 80 0.121094 C 35.882812 0.121094 0.121094 35.882812 0.121094 80 C 0.121094 124.117188 35.882812 159.878906 80 159.878906 C 124.117188 159.878906 159.878906 124.117188 159.878906 80 C 159.878906 35.882812 124.117188 0.121094 80 0.121094 Z M 80 0.121094 " clip-rule="nonzero"/></clipPath><clipPath id="468a0e4f48"><rect x="0" width="160" y="0" height="160"/></clipPath><clipPath id="58c29c26d3"><path d="M 116.484375 116.484375 L 267.515625 116.484375 L 267.515625 267.515625 L 116.484375 267.515625 Z M 116.484375 116.484375 " clip-rule="nonzero"/></clipPath><clipPath id="3db9ce6ae7"><path d="M 192 116.484375 C 150.292969 116.484375 116.484375 150.292969 116.484375 192 C 116.484375 233.707031 150.292969 267.515625 192 267.515625 C 233.707031 267.515625 267.515625 233.707031 267.515625 192 C 267.515625 150.292969 233.707031 116.484375 192 116.484375 Z M 192 116.484375 " clip-rule="nonzero"/></clipPath><clipPath id="26143f4d25"><path d="M 0.484375 0.484375 L 151.515625 0.484375 L 151.515625 151.515625 L 0.484375 151.515625 Z M 0.484375 0.484375 " clip-rule="nonzero"/></clipPath><clipPath id="c902b7ba8c"><path d="M 76 0.484375 C 34.292969 0.484375 0.484375 34.292969 0.484375 76 C 0.484375 117.707031 34.292969 151.515625 76 151.515625 C 117.707031 151.515625 151.515625 117.707031 151.515625 76 C 151.515625 34.292969 117.707031 0.484375 76 0.484375 Z M 76 0.484375 " clip-rule="nonzero"/></clipPath><clipPath id="23e0dbfe94"><rect x="0" width="152" y="0" height="152"/></clipPath><clipPath id="22f90a4fe6"><path d="M 122.296875 122.296875 L 261.703125 122.296875 L 261.703125 261.703125 L 122.296875 261.703125 Z M 122.296875 122.296875 " clip-rule="nonzero"/></clipPath><clipPath id="75e868e068"><path d="M 192 122.296875 C 153.503906 122.296875 122.296875 153.503906 122.296875 192 C 122.296875 230.496094 153.503906 261.703125 192 261.703125 C 230.496094 261.703125 261.703125 230.496094 261.703125 192 C 261.703125 153.503906 230.496094 122.296875 192 122.296875 Z M 192 122.296875 " clip-rule="nonzero"/></clipPath><clipPath id="cad640f524"><path d="M 0.296875 0.296875 L 139.703125 0.296875 L 139.703125 139.703125 L 0.296875 139.703125 Z M 0.296875 0.296875 " clip-rule="nonzero"/></clipPath><clipPath id="bd494e2c2b"><path d="M 70 0.296875 C 31.503906 0.296875 0.296875 31.503906 0.296875 70 C 0.296875 108.496094 31.503906 139.703125 70 139.703125 C 108.496094 139.703125 139.703125 108.496094 139.703125 70 C 139.703125 31.503906 108.496094 0.296875 70 0.296875 Z M 70 0.296875 " clip-rule="nonzero"/></clipPath><clipPath id="e57f0a9f9c"><rect x="0" width="140" y="0" height="140"/></clipPath><clipPath id="9aa83a2c99"><path d="M 129.746094 159.691406 L 254.246094 159.691406 L 254.246094 224.191406 L 129.746094 224.191406 Z M 129.746094 159.691406 " clip-rule="nonzero"/></clipPath><clipPath id="bd54f04d08"><path d="M 279.878906 163.109375 L 298 163.109375 L 298 193 L 279.878906 193 Z M 279.878906 163.109375 " clip-rule="nonzero"/></clipPath><clipPath id="ff799e8512"><path d="M 288 164 L 309.878906 164 L 309.878906 197.609375 L 288 197.609375 Z M 288 164 " clip-rule="nonzero"/></clipPath><clipPath id="1073201519"><path d="M 74.515625 163.109375 L 104.515625 163.109375 L 104.515625 197.609375 L 74.515625 197.609375 Z M 74.515625 163.109375 " clip-rule="nonzero"/></clipPath><clipPath id="f5f4af179f"><path d="M 12 0.109375 L 30.175781 0.109375 L 30.175781 30 L 12 30 Z M 12 0.109375 " clip-rule="nonzero"/></clipPath><clipPath id="6d9d76bb39"><path d="M 0.515625 1 L 22 1 L 22 34.519531 L 0.515625 34.519531 Z M 0.515625 1 " clip-rule="nonzero"/></clipPath><clipPath id="76fb52660f"><rect x="0" width="31" y="0" height="35"/></clipPath></defs><g clip-path="url(#275eeae896)"><g clip-path="url(#d02b1bbc53)"><g transform="matrix(1, 0, 0, 1, 53, 53)"><g clip-path="url(#871337f408)"><g clip-path="url(#e317a5ad5b)"><g clip-path="url(#64a12451c0)"><path fill="#013e37" d="M 0.304688 0.304688 L 277.695312 0.304688 L 277.695312 277.695312 L 0.304688 277.695312 Z M 0.304688 0.304688 " fill-opacity="1" fill-rule="nonzero"/></g></g></g></g></g></g><g clip-path="url(#cfbabe8490)"><g clip-path="url(#6e0d83fc14)"><g transform="matrix(1, 0, 0, 1, 59, 59)"><g clip-path="url(#9f6123a2e7)"><g clip-path="url(#c939fe747f)"><g clip-path="url(#999a374bd1)"><path fill="#ffffff" d="M 0.214844 0.214844 L 265.785156 0.214844 L 265.785156 265.785156 L 0.214844 265.785156 Z M 0.214844 0.214844 " fill-opacity="1" fill-rule="nonzero"/></g></g></g></g></g></g><g clip-path="url(#d6fecba2d1)"><g transform="matrix(1, 0, 0, 1, 75, 183)"><g clip-path="url(#eb76da861f)"><g clip-path="url(#20e78ca135)"><path fill="#013e37" d="M 14.777344 10.046875 C 14.738281 8.542969 14.332031 7.054688 13.585938 5.660156 C 12.71875 4.042969 11.480469 2.765625 9.894531 1.84375 C 8.964844 1.304688 7.964844 0.964844 6.871094 0.972656 C 6.4375 0.976562 6.253906 1.378906 6.496094 1.761719 C 7.191406 2.863281 7.296875 4.070312 7.226562 5.339844 C 7.164062 6.523438 7.125 7.722656 7.222656 8.902344 C 7.28125 9.613281 7.601562 10.308594 7.855469 10.988281 C 8.039062 11.472656 8.269531 11.953125 8.554688 12.386719 C 9.277344 13.488281 10.277344 14.269531 11.523438 14.703125 C 11.882812 14.828125 12.292969 14.894531 12.675781 14.871094 C 13.328125 14.828125 13.617188 14.277344 13.910156 13.792969 C 14.519531 12.785156 14.699219 11.957031 14.777344 10.046875 Z M 14.777344 10.046875 " fill-opacity="1" fill-rule="nonzero"/></g><g clip-path="url(#c23e45c182)"><path fill="#013e37" d="M 0.894531 7.808594 C 0.96875 10.480469 1.929688 12.976562 4.078125 14.96875 C 5.074219 15.894531 6.207031 16.5625 7.546875 16.859375 C 8.496094 17.074219 9.449219 17.082031 10.386719 16.800781 C 10.550781 16.75 10.777344 16.566406 10.789062 16.429688 C 10.804688 16.292969 10.613281 16.070312 10.460938 15.992188 C 9.5 15.503906 8.636719 14.910156 7.902344 14.097656 C 7.242188 13.363281 6.746094 12.535156 6.402344 11.644531 C 5.984375 10.5625 5.671875 9.433594 5.722656 8.246094 C 5.773438 6.972656 5.835938 5.699219 5.859375 4.425781 C 5.871094 3.660156 5.691406 2.902344 5.257812 2.277344 C 4.660156 1.410156 4.207031 1.433594 3.402344 2.113281 C 1.695312 3.550781 1.003906 5.429688 0.894531 7.808594 Z M 0.894531 7.808594 " fill-opacity="1" fill-rule="nonzero"/></g></g></g></g><g clip-path="url(#eb748bd668)"><g clip-path="url(#eaeac1980a)"><g transform="matrix(1, 0, 0, 1, 64, 64)"><g clip-path="url(#709d6bd831)"><g clip-path="url(#800e5a1b62)"><g clip-path="url(#8d579d8bd0)"><path fill="#013e37" d="M 0.402344 0.402344 L 255.597656 0.402344 L 255.597656 255.597656 L 0.402344 255.597656 Z M 0.402344 0.402344 " fill-opacity="1" fill-rule="nonzero"/></g></g></g></g></g></g><g transform="matrix(1, 0, 0, 1, 76, 60)"><g clip-path="url(#4684a31014)"><g fill="#ffffff" fill-opacity="1"><g transform="translate(34.233353, 93.5731)"><g><path d="M 1.8125 -2.1875 L -23 -22.640625 L -17.015625 -29.921875 L -2.53125 -27.921875 L -7.25 -41.765625 L -1.265625 -49.03125 L 23.546875 -28.578125 L 17.90625 -21.734375 L 3.65625 -33.484375 L 8.140625 -19.125 L 8.03125 -18.96875 L -6.859375 -20.65625 L 7.359375 -8.9375 Z M 1.8125 -2.1875 "/></g></g></g><g fill="#ffffff" fill-opacity="1"><g transform="translate(56.976919, 65.157069)"><g><path d="M 17.109375 -8.4375 C 14.921875 -7.257812 12.691406 -6.554688 10.421875 -6.328125 C 8.148438 -6.097656 5.988281 -6.273438 3.9375 -6.859375 C 1.882812 -7.453125 -0.00390625 -8.441406 -1.734375 -9.828125 C -3.472656 -11.210938 -4.882812 -12.914062 -5.96875 -14.9375 L -6.015625 -15.015625 C -7.097656 -17.046875 -7.726562 -19.164062 -7.90625 -21.375 C -8.082031 -23.59375 -7.851562 -25.726562 -7.21875 -27.78125 C -6.59375 -29.84375 -5.539062 -31.757812 -4.0625 -33.53125 C -2.59375 -35.3125 -0.765625 -36.789062 1.421875 -37.96875 C 3.609375 -39.132812 5.835938 -39.828125 8.109375 -40.046875 C 10.378906 -40.273438 12.539062 -40.09375 14.59375 -39.5 C 16.644531 -38.914062 18.535156 -37.929688 20.265625 -36.546875 C 21.992188 -35.160156 23.398438 -33.460938 24.484375 -31.453125 L 24.515625 -31.359375 C 25.597656 -29.335938 26.226562 -27.21875 26.40625 -25 C 26.59375 -22.789062 26.367188 -20.65625 25.734375 -18.59375 C 25.109375 -16.53125 24.054688 -14.613281 22.578125 -12.84375 C 21.109375 -11.070312 19.285156 -9.601562 17.109375 -8.4375 Z M 13.40625 -15.5625 C 14.488281 -16.132812 15.359375 -16.859375 16.015625 -17.734375 C 16.671875 -18.609375 17.125 -19.554688 17.375 -20.578125 C 17.625 -21.597656 17.675781 -22.660156 17.53125 -23.765625 C 17.394531 -24.867188 17.050781 -25.9375 16.5 -26.96875 L 16.453125 -27.046875 C 15.910156 -28.078125 15.210938 -28.960938 14.359375 -29.703125 C 13.515625 -30.453125 12.59375 -31 11.59375 -31.34375 C 10.59375 -31.695312 9.535156 -31.84375 8.421875 -31.78125 C 7.304688 -31.71875 6.207031 -31.398438 5.125 -30.828125 C 4.039062 -30.242188 3.160156 -29.507812 2.484375 -28.625 C 1.816406 -27.738281 1.351562 -26.789062 1.09375 -25.78125 C 0.84375 -24.769531 0.789062 -23.707031 0.9375 -22.59375 C 1.082031 -21.488281 1.429688 -20.425781 1.984375 -19.40625 L 2.015625 -19.3125 C 2.566406 -18.28125 3.265625 -17.394531 4.109375 -16.65625 C 4.960938 -15.914062 5.890625 -15.367188 6.890625 -15.015625 C 7.890625 -14.660156 8.953125 -14.515625 10.078125 -14.578125 C 11.210938 -14.648438 12.320312 -14.976562 13.40625 -15.5625 Z M 13.40625 -15.5625 "/></g></g></g><g fill="#ffffff" fill-opacity="1"><g transform="translate(87.813411, 48.536123)"><g><path d="M 2.8125 -0.375 L -1.46875 -32.25 L 13.609375 -34.28125 C 16.046875 -34.601562 18.160156 -34.570312 19.953125 -34.1875 C 21.753906 -33.8125 23.253906 -33.171875 24.453125 -32.265625 C 25.515625 -31.429688 26.363281 -30.429688 27 -29.265625 C 27.632812 -28.109375 28.054688 -26.753906 28.265625 -25.203125 L 28.28125 -25.109375 C 28.613281 -22.648438 28.285156 -20.53125 27.296875 -18.75 C 26.316406 -16.976562 24.90625 -15.53125 23.0625 -14.40625 L 32.15625 -4.3125 L 21.984375 -2.953125 L 14.265625 -11.734375 L 10.359375 -11.203125 L 11.65625 -1.5625 Z M 9.421875 -18.125 L 15.296875 -18.921875 C 16.785156 -19.117188 17.898438 -19.613281 18.640625 -20.40625 C 19.390625 -21.207031 19.6875 -22.1875 19.53125 -23.34375 L 19.515625 -23.4375 C 19.347656 -24.71875 18.785156 -25.613281 17.828125 -26.125 C 16.878906 -26.644531 15.675781 -26.804688 14.21875 -26.609375 L 8.390625 -25.828125 Z M 9.421875 -18.125 "/></g></g></g><g fill="#ffffff" fill-opacity="1"><g transform="translate(117.88272, 44.232874)"><g><path d="M 2.796875 0.53125 L 8.875 -31.046875 L 22.453125 -28.4375 C 26.390625 -27.675781 29.363281 -26.085938 31.375 -23.671875 C 33.382812 -21.253906 34.0625 -18.316406 33.40625 -14.859375 L 33.390625 -14.765625 C 33.023438 -12.898438 32.367188 -11.316406 31.421875 -10.015625 C 30.472656 -8.710938 29.300781 -7.707031 27.90625 -7 C 26.519531 -6.289062 24.953125 -5.84375 23.203125 -5.65625 C 21.460938 -5.476562 19.613281 -5.578125 17.65625 -5.953125 L 13.28125 -6.796875 L 11.546875 2.21875 Z M 14.59375 -13.65625 L 18.796875 -12.84375 C 20.328125 -12.550781 21.617188 -12.703125 22.671875 -13.296875 C 23.722656 -13.898438 24.363281 -14.816406 24.59375 -16.046875 L 24.625 -16.125 C 24.882812 -17.488281 24.617188 -18.601562 23.828125 -19.46875 C 23.046875 -20.34375 21.890625 -20.925781 20.359375 -21.21875 L 16.203125 -22.015625 Z M 14.59375 -13.65625 "/></g></g></g><g fill="#ffffff" fill-opacity="1"><g transform="translate(145.750626, 48.786815)"><g><path d="M 2.46875 1.421875 L 18.515625 -26.4375 L 26.234375 -21.984375 L 20.234375 -11.5625 L 30.15625 -5.859375 L 36.15625 -16.28125 L 43.875 -11.828125 L 27.828125 16.03125 L 20.109375 11.578125 L 26.203125 0.984375 L 16.28125 -4.71875 L 10.1875 5.875 Z M 2.46875 1.421875 "/></g></g></g><g fill="#ffffff" fill-opacity="1"><g transform="translate(173.776662, 63.921863)"><g><path d="M 11.5 15.21875 C 9.9375 13.289062 8.828125 11.226562 8.171875 9.03125 C 7.523438 6.84375 7.296875 4.6875 7.484375 2.5625 C 7.679688 0.4375 8.296875 -1.601562 9.328125 -3.5625 C 10.359375 -5.53125 11.765625 -7.234375 13.546875 -8.671875 L 13.609375 -8.734375 C 15.398438 -10.179688 17.363281 -11.203125 19.5 -11.796875 C 21.644531 -12.390625 23.789062 -12.566406 25.9375 -12.328125 C 28.082031 -12.097656 30.160156 -11.425781 32.171875 -10.3125 C 34.191406 -9.207031 35.984375 -7.695312 37.546875 -5.78125 C 39.109375 -3.851562 40.21875 -1.796875 40.875 0.390625 C 41.53125 2.585938 41.757812 4.75 41.5625 6.875 C 41.375 9.007812 40.757812 11.054688 39.71875 13.015625 C 38.6875 14.972656 37.28125 16.671875 35.5 18.109375 L 35.421875 18.171875 C 33.640625 19.617188 31.675781 20.640625 29.53125 21.234375 C 27.394531 21.828125 25.253906 22.003906 23.109375 21.765625 C 20.972656 21.535156 18.894531 20.867188 16.875 19.765625 C 14.851562 18.660156 13.0625 17.144531 11.5 15.21875 Z M 17.796875 10.21875 C 18.566406 11.175781 19.445312 11.894531 20.4375 12.375 C 21.4375 12.851562 22.457031 13.117188 23.5 13.171875 C 24.539062 13.234375 25.585938 13.085938 26.640625 12.734375 C 27.703125 12.390625 28.6875 11.851562 29.59375 11.125 L 29.65625 11.0625 C 30.5625 10.332031 31.300781 9.476562 31.875 8.5 C 32.457031 7.53125 32.828125 6.519531 32.984375 5.46875 C 33.140625 4.414062 33.082031 3.347656 32.8125 2.265625 C 32.539062 1.179688 32.015625 0.164062 31.234375 -0.78125 C 30.472656 -1.726562 29.59375 -2.453125 28.59375 -2.953125 C 27.59375 -3.453125 26.566406 -3.726562 25.515625 -3.78125 C 24.472656 -3.84375 23.421875 -3.695312 22.359375 -3.34375 C 21.304688 -3 20.328125 -2.460938 19.421875 -1.734375 L 19.34375 -1.671875 C 18.4375 -0.929688 17.695312 -0.078125 17.125 0.890625 C 16.5625 1.859375 16.203125 2.867188 16.046875 3.921875 C 15.890625 4.984375 15.945312 6.0625 16.21875 7.15625 C 16.5 8.25 17.023438 9.269531 17.796875 10.21875 Z M 17.796875 10.21875 "/></g></g></g></g></g><g transform="matrix(1, 0, 0, 1, 69, 211)"><g clip-path="url(#c426e2bcde)"><g fill="#ffffff" fill-opacity="1"><g transform="translate(10.416844, 20.674836)"><g><path d="M 7.6875 16.65625 C 6.65625 14.601562 6.054688 12.488281 5.890625 10.3125 C 5.734375 8.132812 5.976562 6.050781 6.625 4.0625 C 7.269531 2.082031 8.300781 0.25 9.71875 -1.4375 C 11.132812 -3.132812 12.898438 -4.519531 15.015625 -5.59375 L 15.109375 -5.640625 C 17.179688 -6.691406 19.320312 -7.296875 21.53125 -7.453125 C 23.75 -7.609375 25.851562 -7.359375 27.84375 -6.703125 C 29.832031 -6.054688 31.679688 -5.003906 33.390625 -3.546875 C 35.109375 -2.085938 36.507812 -0.28125 37.59375 1.875 C 39.070312 4.789062 39.75 7.507812 39.625 10.03125 C 39.507812 12.5625 38.90625 14.890625 37.8125 17.015625 L 30.171875 13.390625 C 30.765625 12.054688 31.113281 10.734375 31.21875 9.421875 C 31.332031 8.117188 31.046875 6.785156 30.359375 5.421875 C 29.847656 4.421875 29.175781 3.609375 28.34375 2.984375 C 27.519531 2.359375 26.613281 1.914062 25.625 1.65625 C 24.644531 1.40625 23.601562 1.34375 22.5 1.46875 C 21.40625 1.601562 20.34375 1.929688 19.3125 2.453125 L 19.234375 2.5 C 18.171875 3.03125 17.253906 3.703125 16.484375 4.515625 C 15.722656 5.335938 15.148438 6.21875 14.765625 7.15625 C 14.378906 8.101562 14.203125 9.09375 14.234375 10.125 C 14.265625 11.15625 14.535156 12.171875 15.046875 13.171875 C 15.785156 14.648438 16.726562 15.722656 17.875 16.390625 C 19.019531 17.066406 20.320312 17.566406 21.78125 17.890625 L 20.546875 26.015625 C 18.015625 25.609375 15.632812 24.726562 13.40625 23.375 C 11.175781 22.019531 9.269531 19.78125 7.6875 16.65625 Z M 7.6875 16.65625 "/></g></g></g><g fill="#ffffff" fill-opacity="1"><g transform="translate(30.542018, 57.563299)"><g><path d="M 0.25 0.21875 L 31.984375 -14.609375 L 38.34375 -8.859375 L 26.8125 24.234375 L 19.734375 17.84375 L 21.90625 12.03125 L 12.6875 3.703125 L 7.140625 6.453125 Z M 19.28125 0.328125 L 24.625 5.15625 L 28.046875 -3.96875 Z M 19.28125 0.328125 "/></g></g></g><g fill="#ffffff" fill-opacity="1"><g transform="translate(64.854858, 85.888984)"><g><path d="M 2.640625 1.078125 L 14.71875 -28.625 L 38.484375 -18.96875 L 35.5625 -11.75 L 20.03125 -18.0625 L 17.96875 -13.015625 L 32 -7.3125 L 29.21875 -0.484375 L 15.1875 -6.1875 L 10.875 4.421875 Z M 2.640625 1.078125 "/></g></g></g><g fill="#ffffff" fill-opacity="1"><g transform="translate(99.903205, 98.890601)"><g><path d="M 2.84375 0.1875 L 4.96875 -31.796875 L 30.703125 -30.09375 L 30.203125 -22.625 L 13.234375 -23.75 L 12.90625 -18.84375 L 28.265625 -17.828125 L 27.8125 -10.828125 L 12.453125 -11.84375 L 12.109375 -6.78125 L 29.296875 -5.640625 L 28.796875 1.90625 Z M 2.84375 0.1875 "/></g></g></g><g fill="#ffffff" fill-opacity="1"><g transform="translate(136.58878, 99.539605)"><g/></g></g><g fill="#ffffff" fill-opacity="1"><g transform="translate(155.978689, 96.887299)"><g><path d="M 0.296875 -0.140625 L -0.96875 -35.15625 L 6.8125 -38.765625 L 32.78125 -15.21875 L 24.140625 -11.203125 L 19.640625 -15.484375 L 8.375 -10.25 L 8.734375 -4.046875 Z M 7.828125 -17.609375 L 14.359375 -20.640625 L 7.28125 -27.375 Z M 7.828125 -17.609375 "/></g></g></g><g fill="#ffffff" fill-opacity="1"><g transform="translate(195.570037, 76.345626)"><g><path d="M 2 -2.015625 L -20.75 -24.609375 L -11.03125 -34.390625 C -8.21875 -37.234375 -5.25 -38.816406 -2.125 -39.140625 C 0.988281 -39.460938 3.789062 -38.390625 6.28125 -35.921875 L 6.359375 -35.859375 C 7.703125 -34.515625 8.644531 -33.085938 9.1875 -31.578125 C 9.726562 -30.078125 9.910156 -28.550781 9.734375 -27 C 9.554688 -25.445312 9.054688 -23.898438 8.234375 -22.359375 C 7.410156 -20.816406 6.296875 -19.335938 4.890625 -17.921875 L 1.765625 -14.78125 L 8.265625 -8.328125 Z M -3.171875 -19.6875 L -0.171875 -22.703125 C 0.921875 -23.804688 1.507812 -24.957031 1.59375 -26.15625 C 1.6875 -27.363281 1.289062 -28.40625 0.40625 -29.28125 L 0.34375 -29.359375 C -0.632812 -30.328125 -1.695312 -30.722656 -2.84375 -30.546875 C -4 -30.378906 -5.125 -29.742188 -6.21875 -28.640625 L -9.1875 -25.65625 Z M -3.171875 -19.6875 "/></g></g></g><g fill="#ffffff" fill-opacity="1"><g transform="translate(221.838948, 48.07802)"><g><path d="M 1.25 -2.546875 L -27.546875 -16.640625 L -21.484375 -29.03125 C -19.722656 -32.625 -17.414062 -35.078125 -14.5625 -36.390625 C -11.71875 -37.703125 -8.71875 -37.582031 -5.5625 -36.03125 L -5.484375 -36 C -3.773438 -35.164062 -2.421875 -34.117188 -1.421875 -32.859375 C -0.429688 -31.609375 0.222656 -30.21875 0.546875 -28.6875 C 0.878906 -27.164062 0.90625 -25.539062 0.625 -23.8125 C 0.34375 -22.09375 -0.234375 -20.34375 -1.109375 -18.5625 L -3.0625 -14.578125 L 5.15625 -10.546875 Z M -9.328125 -17.640625 L -7.453125 -21.453125 C -6.765625 -22.859375 -6.570312 -24.144531 -6.875 -25.3125 C -7.175781 -26.476562 -7.882812 -27.332031 -9 -27.875 L -9.09375 -27.921875 C -10.320312 -28.523438 -11.457031 -28.5625 -12.5 -28.03125 C -13.539062 -27.5 -14.40625 -26.53125 -15.09375 -25.125 L -16.9375 -21.359375 Z M -9.328125 -17.640625 "/></g></g></g></g></g><g clip-path="url(#489c1a7b07)"><g clip-path="url(#7c752ff734)"><g transform="matrix(1, 0, 0, 1, 106, 106)"><g clip-path="url(#1ca52ed388)"><g clip-path="url(#ef97ae580a)"><g clip-path="url(#0dc2b96c68)"><path fill="#013e37" d="M 0.320312 0.320312 L 171.679688 0.320312 L 171.679688 171.679688 L 0.320312 171.679688 Z M 0.320312 0.320312 " fill-opacity="1" fill-rule="nonzero"/></g></g></g></g></g></g><g clip-path="url(#6efa4e5431)"><g clip-path="url(#b0ca7393e4)"><g transform="matrix(1, 0, 0, 1, 112, 112)"><g clip-path="url(#468a0e4f48)"><g clip-path="url(#dd15d39366)"><g clip-path="url(#5bc429a248)"><path fill="#ffffff" d="M 0.121094 0.121094 L 159.878906 0.121094 L 159.878906 159.878906 L 0.121094 159.878906 Z M 0.121094 0.121094 " fill-opacity="1" fill-rule="nonzero"/></g></g></g></g></g></g><g clip-path="url(#58c29c26d3)"><g clip-path="url(#3db9ce6ae7)"><g transform="matrix(1, 0, 0, 1, 116, 116)"><g clip-path="url(#23e0dbfe94)"><g clip-path="url(#26143f4d25)"><g clip-path="url(#c902b7ba8c)"><path fill="#013e37" d="M 0.484375 0.484375 L 151.515625 0.484375 L 151.515625 151.515625 L 0.484375 151.515625 Z M 0.484375 0.484375 " fill-opacity="1" fill-rule="nonzero"/></g></g></g></g></g></g><g clip-path="url(#22f90a4fe6)"><g clip-path="url(#75e868e068)"><g transform="matrix(1, 0, 0, 1, 122, 122)"><g clip-path="url(#e57f0a9f9c)"><g clip-path="url(#cad640f524)"><g clip-path="url(#bd494e2c2b)"><path fill="#ffffff" d="M 0.296875 0.296875 L 139.703125 0.296875 L 139.703125 139.703125 L 0.296875 139.703125 Z M 0.296875 0.296875 " fill-opacity="1" fill-rule="nonzero"/></g></g></g></g></g></g><g clip-path="url(#9aa83a2c99)"><path fill="#013e37" d="M 197.992188 159.753906 C 197.707031 159.8125 197.425781 159.875 197.140625 159.933594 C 194.734375 160.441406 192.746094 161.871094 191.234375 164.179688 C 189.992188 166.074219 189.382812 167.949219 189.21875 170.367188 C 188.992188 173.753906 190.003906 177.652344 192.285156 182.164062 C 195.859375 189.222656 201.015625 195.304688 207.589844 200.207031 C 211.714844 203.28125 216.074219 205.582031 220.746094 207.152344 C 224.003906 208.246094 227.070312 208.90625 230.804688 209.3125 C 231.714844 209.414062 232.136719 209.425781 234.054688 209.425781 C 236.023438 209.425781 236.363281 209.414062 237.214844 209.308594 C 239.542969 209.027344 241.472656 208.554688 243.34375 207.8125 C 249.0625 205.546875 252.730469 201.285156 253.929688 195.519531 C 254.066406 194.875 254.179688 193.964844 254.238281 193.035156 C 254.300781 192.128906 254.300781 190.773438 254.242188 191.011719 C 254.207031 191.152344 254.203125 191.144531 254.195312 190.929688 C 254.1875 190.566406 254.039062 189.523438 253.898438 188.804688 C 253.027344 184.378906 250.832031 181 247.09375 178.332031 C 244.921875 176.78125 242.410156 175.675781 239.945312 175.1875 C 238.566406 174.917969 238.09375 174.875 236.289062 174.875 C 234.464844 174.875 233.703125 174.941406 232.242188 175.238281 C 228.992188 175.890625 226.195312 177.453125 224.085938 179.789062 C 223.796875 180.109375 222.878906 181.285156 222.042969 182.402344 C 220.425781 184.5625 219.722656 185.40625 218.96875 186.097656 C 217.558594 187.390625 215.714844 188.394531 213.660156 188.988281 C 212.308594 189.375 211.113281 189.539062 209.578125 189.542969 C 209 189.542969 208.539062 189.566406 208.554688 189.589844 C 208.625 189.707031 209.949219 189.988281 211.25 190.160156 C 212.023438 190.265625 212.347656 190.277344 213.871094 190.277344 C 215.332031 190.277344 215.75 190.257812 216.492188 190.164062 C 218.679688 189.890625 220.535156 189.417969 222.324219 188.679688 C 222.96875 188.414062 224.304688 187.757812 225.277344 187.226562 C 227.105469 186.230469 228.578125 185.53125 229.695312 185.136719 C 232.132812 184.269531 234.253906 184.230469 236.261719 185.019531 C 237.714844 185.589844 239.125 186.695312 240.035156 187.976562 C 240.460938 188.570312 241.054688 189.742188 241.269531 190.402344 C 241.585938 191.390625 241.660156 191.886719 241.65625 193.058594 C 241.652344 194.261719 241.578125 194.734375 241.238281 195.707031 C 240.269531 198.5 238.128906 200.582031 234.972656 201.8125 C 233.523438 202.375 232.125 202.699219 230.113281 202.929688 C 229.304688 203.019531 225.59375 203.023438 224.742188 202.929688 C 219.902344 202.40625 216.109375 201.320312 212.667969 199.464844 C 209.609375 197.820312 206.769531 195.695312 203.585938 192.679688 C 202.3125 191.472656 201.816406 190.875 201.320312 189.945312 C 200.789062 188.953125 200.558594 188.042969 200.601562 187.09375 C 200.632812 186.398438 200.75 185.949219 201.191406 184.839844 C 201.816406 183.261719 202.378906 182.277344 204.457031 179.152344 C 207.574219 174.464844 208.011719 173.726562 208.566406 172.226562 C 209.003906 171.042969 209.175781 170.328125 209.25 169.351562 C 209.394531 167.511719 208.863281 165.761719 207.679688 164.171875 C 207.136719 163.441406 205.796875 162.109375 205.152344 161.652344 C 203.785156 160.6875 202.535156 160.164062 200.792969 159.824219 C 200.210938 159.710938 199.988281 159.695312 199.171875 159.699219 C 198.652344 159.703125 198.121094 159.726562 197.992188 159.753906 M 200.300781 163.332031 C 199.945312 163.398438 199.421875 163.574219 199.105469 163.726562 C 198.464844 164.046875 197.671875 164.773438 197.222656 165.453125 C 196.5625 166.449219 196.023438 168.03125 195.761719 169.734375 C 195.300781 172.753906 195.695312 176.765625 196.855469 180.839844 C 196.976562 181.269531 197.632812 183.269531 197.660156 183.300781 C 197.691406 183.335938 197.929688 182.984375 202.753906 175.785156 C 205.789062 171.253906 205.957031 170.953125 206.273438 169.5 C 206.417969 168.835938 206.40625 167.398438 206.25 166.828125 C 206.121094 166.355469 205.859375 165.777344 205.609375 165.414062 C 204.917969 164.398438 203.65625 163.601562 202.351562 163.355469 C 201.878906 163.265625 200.734375 163.253906 200.300781 163.332031 M 148.355469 174.585938 C 145.550781 174.746094 142.601562 175.394531 140.34375 176.347656 C 136.320312 178.039062 133.398438 180.644531 131.628906 184.128906 C 130.714844 185.925781 130.160156 187.699219 129.90625 189.632812 C 129.777344 190.609375 129.765625 192.820312 129.882812 193.789062 C 130.386719 197.933594 132.066406 201.363281 134.914062 204.066406 C 139.140625 208.082031 145.238281 209.921875 151.054688 208.9375 C 154.789062 208.304688 158.035156 206.507812 160.289062 203.828125 C 160.554688 203.511719 161.433594 202.367188 162.25 201.285156 C 163.0625 200.199219 163.929688 199.085938 164.171875 198.8125 C 165.816406 196.96875 168.035156 195.652344 170.644531 194.976562 C 172.09375 194.597656 173.410156 194.433594 174.675781 194.472656 C 175.140625 194.488281 175.523438 194.480469 175.523438 194.453125 C 175.523438 194.34375 174.128906 194.050781 172.683594 193.859375 C 171.730469 193.730469 169.28125 193.703125 168.152344 193.808594 C 165.792969 194.027344 163.824219 194.496094 161.742188 195.332031 C 160.9375 195.65625 160.160156 196.035156 158.605469 196.871094 C 155.488281 198.542969 154.023438 199.136719 152.234375 199.449219 C 151.382812 199.597656 150.160156 199.609375 149.398438 199.472656 C 147.054688 199.054688 145.0625 197.722656 143.75 195.707031 C 142.296875 193.46875 141.941406 190.847656 142.757812 188.390625 C 143.546875 186.007812 145.382812 183.972656 147.847656 182.738281 C 150.214844 181.558594 152.964844 181.003906 156.503906 181 C 158.769531 180.996094 160.675781 181.191406 163.101562 181.671875 C 169.132812 182.867188 173.847656 185.386719 179.386719 190.386719 C 181.511719 192.300781 182.1875 193.078125 182.785156 194.277344 C 183.222656 195.15625 183.363281 195.671875 183.394531 196.511719 C 183.441406 197.660156 183.179688 198.597656 182.347656 200.296875 C 181.769531 201.472656 181.28125 202.273438 179.582031 204.839844 C 176.496094 209.488281 176.113281 210.125 175.507812 211.664062 C 174.984375 212.980469 174.742188 214.109375 174.742188 215.242188 C 174.742188 216.417969 174.957031 217.363281 175.464844 218.410156 C 175.976562 219.46875 176.574219 220.257812 177.683594 221.34375 C 179.21875 222.847656 180.960938 223.777344 182.929688 224.15625 C 183.457031 224.257812 183.707031 224.269531 184.808594 224.269531 C 185.925781 224.269531 186.152344 224.257812 186.671875 224.152344 C 187.921875 223.902344 189.136719 223.386719 190.101562 222.703125 C 191.042969 222.03125 192.152344 220.851562 192.867188 219.757812 C 193.597656 218.636719 194.257812 217.007812 194.539062 215.617188 C 194.910156 213.78125 194.917969 211.644531 194.5625 209.75 C 193.867188 206.050781 192.007812 201.816406 189.058594 197.222656 C 186.234375 192.820312 182.136719 188.328125 177.757812 184.835938 C 169.722656 178.429688 159.863281 174.734375 150.355469 174.566406 C 149.65625 174.550781 148.757812 174.5625 148.355469 174.585938 M 191.453125 188.933594 C 191.210938 188.976562 190.878906 189.097656 190.570312 189.25 C 189.6875 189.6875 188.984375 190.542969 188.722656 191.503906 C 188.660156 191.742188 188.632812 192.019531 188.636719 192.460938 C 188.636719 192.992188 188.660156 193.144531 188.777344 193.5 C 189.109375 194.488281 189.695312 195.167969 190.609375 195.625 C 191.15625 195.898438 191.597656 195.984375 192.320312 195.953125 C 193.324219 195.914062 193.96875 195.628906 194.695312 194.902344 C 195.398438 194.195312 195.707031 193.4375 195.707031 192.414062 C 195.707031 191.804688 195.625 191.429688 195.367188 190.886719 C 194.929688 189.953125 194.085938 189.253906 193.082031 188.984375 C 192.644531 188.867188 191.917969 188.84375 191.453125 188.933594 M 185.878906 201.351562 C 181.777344 207.453125 178.566406 212.316406 178.367188 212.726562 C 177.394531 214.734375 177.363281 216.855469 178.28125 218.421875 C 178.539062 218.867188 179.40625 219.707031 179.921875 220.011719 C 180.867188 220.574219 181.800781 220.796875 182.996094 220.753906 C 184.292969 220.707031 185.222656 220.308594 186.097656 219.421875 C 187.339844 218.171875 188.136719 215.984375 188.390625 213.140625 C 188.671875 209.976562 187.929688 205.132812 186.589844 201.414062 C 186.457031 201.042969 186.335938 200.742188 186.320312 200.742188 C 186.300781 200.742188 186.105469 201.015625 185.878906 201.351562 " fill-opacity="1" fill-rule="evenodd"/></g><g clip-path="url(#bd54f04d08)"><path fill="#87b889" d="M 279.890625 182.476562 C 279.976562 179.265625 280.84375 176.089844 282.4375 173.117188 C 284.289062 169.660156 286.933594 166.9375 290.316406 164.96875 C 292.296875 163.816406 294.4375 163.089844 296.769531 163.109375 C 297.691406 163.117188 298.085938 163.972656 297.570312 164.789062 C 296.082031 167.140625 295.863281 169.71875 296.007812 172.425781 C 296.144531 174.960938 296.230469 177.515625 296.019531 180.035156 C 295.890625 181.546875 295.210938 183.03125 294.664062 184.484375 C 294.277344 185.523438 293.789062 186.546875 293.179688 187.472656 C 291.636719 189.824219 289.503906 191.492188 286.84375 192.414062 C 286.070312 192.679688 285.195312 192.824219 284.378906 192.769531 C 282.988281 192.683594 282.375 191.503906 281.75 190.46875 C 280.449219 188.320312 280.058594 186.554688 279.890625 182.476562 Z M 279.890625 182.476562 " fill-opacity="1" fill-rule="nonzero"/></g><g clip-path="url(#ff799e8512)"><path fill="#87b889" d="M 309.523438 177.695312 C 309.371094 183.40625 307.320312 188.730469 302.734375 192.980469 C 300.601562 194.957031 298.1875 196.382812 295.332031 197.019531 C 293.296875 197.472656 291.265625 197.488281 289.265625 196.886719 C 288.914062 196.78125 288.429688 196.394531 288.40625 196.097656 C 288.375 195.804688 288.78125 195.335938 289.109375 195.167969 C 291.160156 194.125 293.003906 192.855469 294.566406 191.121094 C 295.976562 189.558594 297.03125 187.789062 297.769531 185.882812 C 298.664062 183.578125 299.328125 181.171875 299.222656 178.636719 C 299.109375 175.917969 298.976562 173.199219 298.929688 170.476562 C 298.902344 168.839844 299.285156 167.226562 300.210938 165.890625 C 301.484375 164.046875 302.453125 164.09375 304.171875 165.542969 C 307.8125 168.613281 309.292969 172.625 309.523438 177.695312 Z M 309.523438 177.695312 " fill-opacity="1" fill-rule="nonzero"/></g><g clip-path="url(#1073201519)"><g transform="matrix(1, 0, 0, 1, 74, 163)"><g clip-path="url(#76fb52660f)"><g clip-path="url(#f5f4af179f)"><path fill="#87b889" d="M 30.164062 19.476562 C 30.078125 16.265625 29.210938 13.089844 27.617188 10.117188 C 25.765625 6.660156 23.125 3.9375 19.738281 1.96875 C 17.757812 0.816406 15.617188 0.0898438 13.285156 0.109375 C 12.363281 0.117188 11.96875 0.972656 12.484375 1.789062 C 13.972656 4.140625 14.191406 6.71875 14.046875 9.425781 C 13.910156 11.960938 13.824219 14.515625 14.035156 17.035156 C 14.164062 18.546875 14.84375 20.03125 15.390625 21.484375 C 15.777344 22.523438 16.265625 23.546875 16.875 24.472656 C 18.417969 26.824219 20.550781 28.492188 23.210938 29.414062 C 23.984375 29.679688 24.859375 29.824219 25.675781 29.769531 C 27.066406 29.683594 27.679688 28.503906 28.304688 27.46875 C 29.605469 25.320312 29.996094 23.554688 30.164062 19.476562 Z M 30.164062 19.476562 " fill-opacity="1" fill-rule="nonzero"/></g><g clip-path="url(#6d9d76bb39)"><path fill="#87b889" d="M 0.53125 14.695312 C 0.683594 20.40625 2.734375 25.730469 7.320312 29.980469 C 9.453125 31.957031 11.867188 33.382812 14.722656 34.019531 C 16.757812 34.472656 18.789062 34.488281 20.789062 33.886719 C 21.140625 33.78125 21.625 33.394531 21.652344 33.097656 C 21.679688 32.804688 21.273438 32.335938 20.945312 32.167969 C 18.894531 31.125 17.050781 29.855469 15.488281 28.121094 C 14.078125 26.558594 13.023438 24.789062 12.285156 22.882812 C 11.390625 20.578125 10.726562 18.171875 10.832031 15.636719 C 10.945312 12.917969 11.078125 10.199219 11.125 7.476562 C 11.152344 5.839844 10.769531 4.226562 9.84375 2.890625 C 8.570312 1.046875 7.601562 1.09375 5.882812 2.542969 C 2.242188 5.613281 0.761719 9.625 0.53125 14.695312 Z M 0.53125 14.695312 " fill-opacity="1" fill-rule="nonzero"/></g></g></g></g></svg>